<svg width="35" height="35" viewBox="0 0 35 35" fill="none" xmlns="http://www.w3.org/2000/svg">
<g clip-path="url(#clip0)">
<path d="M24.0606 0C22.1947 0.129062 20.0137 1.32343 18.7428 2.87873C17.5834 4.28966 16.6297 6.38528 17.0016 8.42183C19.0403 8.48526 21.1468 7.26246 22.3675 5.6809C23.5093 4.20873 24.3734 2.12624 24.0606 0Z" fill="#DEE1EA"/>
<path d="M31.4355 11.7427C29.6439 9.49613 27.1261 8.19238 24.7484 8.19238C21.6093 8.19238 20.2815 9.69519 18.1006 9.69519C15.8518 9.69519 14.1434 8.19676 11.4287 8.19676C8.76219 8.19676 5.92283 9.82644 4.12253 12.6133C1.59161 16.5376 2.02473 23.916 6.12627 30.2007C7.59407 32.4494 9.55406 34.9782 12.1178 35C14.3993 35.0219 15.0425 33.5366 18.1334 33.5213C21.2243 33.5038 21.8106 35.0197 24.0877 34.9957C26.6537 34.976 28.7208 32.1738 30.1886 29.9251C31.2408 28.3129 31.6324 27.5013 32.4483 25.6813C26.5137 23.4217 25.5621 14.9823 31.4355 11.7427Z" fill="#DEE1EA"/>
</g>
<defs>
<clipPath id="clip0">
<rect width="35" height="35" fill="white"/>
</clipPath>
</defs>
</svg>
