<svg width="206" height="16" viewBox="0 0 206 16" fill="none" xmlns="http://www.w3.org/2000/svg">
<path d="M3.70117 5.60547L0.634766 4.73633L1.21094 2.96875L4.24805 4.18945L4.05273 0.78125H5.9668L5.77148 4.25781L8.73047 3.05664L9.30664 4.84375L6.18164 5.71289L8.23242 8.31055L6.67969 9.41406L4.90234 6.5625L3.14453 9.31641L1.5918 8.26172L3.70117 5.60547ZM14.7637 5.60547L11.6973 4.73633L12.2734 2.96875L15.3105 4.18945L15.1152 0.78125H17.0293L16.834 4.25781L19.793 3.05664L20.3691 4.84375L17.2441 5.71289L19.2949 8.31055L17.7422 9.41406L15.9648 6.5625L14.207 9.31641L12.6543 8.26172L14.7637 5.60547ZM25.8262 5.60547L22.7598 4.73633L23.3359 2.96875L26.373 4.18945L26.1777 0.78125H28.0918L27.8965 4.25781L30.8555 3.05664L31.4316 4.84375L28.3066 5.71289L30.3574 8.31055L28.8047 9.41406L27.0273 6.5625L25.2695 9.31641L23.7168 8.26172L25.8262 5.60547ZM36.8887 5.60547L33.8223 4.73633L34.3984 2.96875L37.4355 4.18945L37.2402 0.78125H39.1543L38.959 4.25781L41.918 3.05664L42.4941 4.84375L39.3691 5.71289L41.4199 8.31055L39.8672 9.41406L38.0898 6.5625L36.332 9.31641L34.7793 8.26172L36.8887 5.60547ZM54.9316 5.60547L51.8652 4.73633L52.4414 2.96875L55.4785 4.18945L55.2832 0.78125H57.1973L57.002 4.25781L59.9609 3.05664L60.5371 4.84375L57.4121 5.71289L59.4629 8.31055L57.9102 9.41406L56.1328 6.5625L54.375 9.31641L52.8223 8.26172L54.9316 5.60547ZM65.9941 5.60547L62.9277 4.73633L63.5039 2.96875L66.541 4.18945L66.3457 0.78125H68.2598L68.0645 4.25781L71.0234 3.05664L71.5996 4.84375L68.4746 5.71289L70.5254 8.31055L68.9727 9.41406L67.1953 6.5625L65.4375 9.31641L63.8848 8.26172L65.9941 5.60547ZM77.0566 5.60547L73.9902 4.73633L74.5664 2.96875L77.6035 4.18945L77.4082 0.78125H79.3223L79.127 4.25781L82.0859 3.05664L82.6621 4.84375L79.5371 5.71289L81.5879 8.31055L80.0352 9.41406L78.2578 6.5625L76.5 9.31641L74.9473 8.26172L77.0566 5.60547ZM88.1191 5.60547L85.0527 4.73633L85.6289 2.96875L88.666 4.18945L88.4707 0.78125H90.3848L90.1895 4.25781L93.1484 3.05664L93.7246 4.84375L90.5996 5.71289L92.6504 8.31055L91.0977 9.41406L89.3203 6.5625L87.5625 9.31641L86.0098 8.26172L88.1191 5.60547ZM106.162 5.60547L103.096 4.73633L103.672 2.96875L106.709 4.18945L106.514 0.78125H108.428L108.232 4.25781L111.191 3.05664L111.768 4.84375L108.643 5.71289L110.693 8.31055L109.141 9.41406L107.363 6.5625L105.605 9.31641L104.053 8.26172L106.162 5.60547ZM117.225 5.60547L114.158 4.73633L114.734 2.96875L117.771 4.18945L117.576 0.78125H119.49L119.295 4.25781L122.254 3.05664L122.83 4.84375L119.705 5.71289L121.756 8.31055L120.203 9.41406L118.426 6.5625L116.668 9.31641L115.115 8.26172L117.225 5.60547ZM128.287 5.60547L125.221 4.73633L125.797 2.96875L128.834 4.18945L128.639 0.78125H130.553L130.357 4.25781L133.316 3.05664L133.893 4.84375L130.768 5.71289L132.818 8.31055L131.266 9.41406L129.488 6.5625L127.73 9.31641L126.178 8.26172L128.287 5.60547ZM139.35 5.60547L136.283 4.73633L136.859 2.96875L139.896 4.18945L139.701 0.78125H141.615L141.42 4.25781L144.379 3.05664L144.955 4.84375L141.83 5.71289L143.881 8.31055L142.328 9.41406L140.551 6.5625L138.793 9.31641L137.24 8.26172L139.35 5.60547ZM161.885 15H159.062V4.12109L155.693 5.16602V2.87109L161.582 0.761719H161.885V15ZM178.26 15H168.514V13.0664L173.113 8.16406C173.745 7.47396 174.21 6.87174 174.51 6.35742C174.816 5.8431 174.969 5.35482 174.969 4.89258C174.969 4.26107 174.809 3.76628 174.49 3.4082C174.171 3.04362 173.715 2.86133 173.123 2.86133C172.485 2.86133 171.98 3.08268 171.609 3.52539C171.245 3.96159 171.062 4.53776 171.062 5.25391H168.23C168.23 4.38802 168.436 3.59701 168.846 2.88086C169.262 2.16471 169.848 1.60482 170.604 1.20117C171.359 0.791016 172.215 0.585938 173.172 0.585938C174.637 0.585938 175.773 0.9375 176.58 1.64062C177.394 2.34375 177.801 3.33659 177.801 4.61914C177.801 5.32227 177.618 6.03841 177.254 6.76758C176.889 7.49674 176.264 8.34635 175.379 9.31641L172.146 12.7246H178.26V15ZM184.869 6.64062H186.373C187.089 6.64062 187.62 6.46159 187.965 6.10352C188.31 5.74544 188.482 5.27018 188.482 4.67773C188.482 4.10482 188.31 3.65885 187.965 3.33984C187.626 3.02083 187.158 2.86133 186.559 2.86133C186.018 2.86133 185.566 3.01107 185.201 3.31055C184.837 3.60352 184.654 3.98763 184.654 4.46289H181.832C181.832 3.7207 182.031 3.05664 182.428 2.4707C182.831 1.87826 183.391 1.41602 184.107 1.08398C184.83 0.751953 185.624 0.585938 186.49 0.585938C187.994 0.585938 189.173 0.947266 190.025 1.66992C190.878 2.38607 191.305 3.37565 191.305 4.63867C191.305 5.28971 191.106 5.88867 190.709 6.43555C190.312 6.98242 189.791 7.40234 189.146 7.69531C189.947 7.98177 190.543 8.41146 190.934 8.98438C191.331 9.55729 191.529 10.2344 191.529 11.0156C191.529 12.2786 191.067 13.291 190.143 14.0527C189.225 14.8145 188.007 15.1953 186.49 15.1953C185.071 15.1953 183.909 14.821 183.004 14.0723C182.105 13.3236 181.656 12.334 181.656 11.1035H184.479C184.479 11.6374 184.677 12.0736 185.074 12.4121C185.478 12.7507 185.973 12.9199 186.559 12.9199C187.229 12.9199 187.753 12.7441 188.131 12.3926C188.515 12.0345 188.707 11.5625 188.707 10.9766C188.707 9.55729 187.926 8.84766 186.363 8.84766H184.869V6.64062ZM203.832 9.64844H205.443V11.9238H203.832V15H201.01V11.9238H195.18L195.053 10.1465L200.98 0.78125H203.832V9.64844ZM197.865 9.64844H201.01V4.62891L200.824 4.95117L197.865 9.64844Z" fill="white"/>
</svg>
