<svg width="35" height="35" viewBox="0 0 35 35" fill="none" xmlns="http://www.w3.org/2000/svg">
<g clip-path="url(#clip0)">
<path d="M8.20312 17.5C8.20312 15.7659 8.68089 14.1415 9.51091 12.7505V6.85059H3.61095C1.2693 9.89176 0 13.5981 0 17.5C0 21.4018 1.2693 25.1081 3.61095 28.1493H9.51091V22.2494C8.68089 20.8584 8.20312 19.234 8.20312 17.5Z" fill="#DEE1EA"/>
<path d="M17.5 26.7966L13.3984 30.8982L17.5 34.9997C21.4019 34.9997 25.1082 33.7304 28.1494 31.3888V25.4951H22.2557C20.8526 26.3281 19.2214 26.7966 17.5 26.7966Z" fill="#DEE1EA"/>
<path d="M9.51129 22.25L3.61133 28.15C4.07494 28.7521 4.57978 29.3287 5.12604 29.875C8.43135 33.1803 12.826 35.0006 17.5004 35.0006V26.7975C14.1081 26.7975 11.135 24.9709 9.51129 22.25Z" fill="#DEE1EA"/>
<path d="M35 17.5003C35 16.4356 34.9036 15.3689 34.7134 14.33L34.5596 13.4893H17.5V21.6924H25.8024C24.9962 23.2962 23.7565 24.6046 22.2556 25.4958L28.1493 31.3894C28.7514 30.9258 29.328 30.421 29.8743 29.8747C33.1797 26.5693 35 22.1747 35 17.5003Z" fill="#DEE1EA"/>
<path d="M24.0739 10.9261L24.7989 11.6511L30.5994 5.85067L29.8744 5.12565C26.5691 1.82034 22.1745 0 17.5 0L13.3984 4.10156L17.5 8.20312C19.9832 8.20312 22.3179 9.17014 24.0739 10.9261Z" fill="#DEE1EA"/>
<path d="M17.5005 8.20312V0C12.826 0 8.43142 1.82034 5.12604 5.12559C4.57978 5.67185 4.07494 6.24846 3.61133 6.85063L9.51129 12.7506C11.135 10.0297 14.1082 8.20312 17.5005 8.20312Z" fill="#DEE1EA"/>
</g>
<defs>
<clipPath id="clip0">
<rect width="35" height="35" fill="white"/>
</clipPath>
</defs>
</svg>
