<svg width="27" height="26" viewBox="0 0 27 26" fill="none" xmlns="http://www.w3.org/2000/svg">
<g clip-path="url(#clip0)">
<path d="M16.1741 13C16.1741 14.3743 15.0465 15.4883 13.6554 15.4883C12.2643 15.4883 11.1367 14.3743 11.1367 13C11.1367 11.6257 12.2643 10.5117 13.6554 10.5117C15.0465 10.5117 16.1741 11.6257 16.1741 13Z" fill="#DEE1EA"/>
<path d="M19.546 8.59761C19.4249 8.27348 19.2318 7.9801 18.9808 7.73929C18.737 7.49133 18.4403 7.30051 18.112 7.18089C17.8457 7.07874 17.4458 6.95714 16.7091 6.92401C15.9121 6.88811 15.6732 6.88037 13.6557 6.88037C11.6379 6.88037 11.399 6.88791 10.6023 6.92381C9.86558 6.95714 9.46541 7.07874 9.19937 7.18089C8.87108 7.30051 8.57411 7.49133 8.33055 7.73929C8.07957 7.9801 7.88641 8.27329 7.76513 8.59761C7.66173 8.86064 7.53864 9.25598 7.50511 9.98378C7.46877 10.7709 7.46094 11.0069 7.46094 13.0003C7.46094 14.9935 7.46877 15.2295 7.50511 16.0168C7.53864 16.7446 7.66173 17.1398 7.76513 17.4028C7.88641 17.7271 8.07937 18.0203 8.33035 18.2611C8.57411 18.5091 8.87087 18.6999 9.19916 18.8195C9.46541 18.9219 9.86558 19.0435 10.6023 19.0766C11.399 19.1125 11.6377 19.12 13.6555 19.12C15.6734 19.12 15.9123 19.1125 16.7089 19.0766C17.4456 19.0435 17.8457 18.9219 18.112 18.8195C18.771 18.5684 19.2918 18.0538 19.546 17.4028C19.6494 17.1398 19.7725 16.7446 19.8062 16.0168C19.8426 15.2295 19.8502 14.9935 19.8502 13.0003C19.8502 11.0069 19.8426 10.7709 19.8062 9.98378C19.7727 9.25598 19.6496 8.86064 19.546 8.59761ZM13.6557 16.8333C11.5127 16.8333 9.77543 15.1172 9.77543 13.0001C9.77543 10.883 11.5127 9.16692 13.6557 9.16692C15.7985 9.16692 17.5357 10.883 17.5357 13.0001C17.5357 15.1172 15.7985 16.8333 13.6557 16.8333ZM17.6891 9.91118C17.1883 9.91118 16.7823 9.51009 16.7823 9.01537C16.7823 8.52065 17.1883 8.11955 17.6891 8.11955C18.1899 8.11955 18.5959 8.52065 18.5959 9.01537C18.5957 9.51009 18.1899 9.91118 17.6891 9.91118Z" fill="#DEE1EA"/>
<path d="M13.655 0C6.38864 0 0.496094 5.8214 0.496094 13C0.496094 20.1786 6.38864 26 13.655 26C20.9213 26 26.8139 20.1786 26.8139 13C26.8139 5.8214 20.9213 0 13.655 0ZM21.1655 16.0776C21.1289 16.8723 21.001 17.4148 20.8143 17.8897C20.4217 18.8924 19.6194 19.6851 18.6044 20.0729C18.1239 20.2574 17.5746 20.3835 16.7704 20.4198C15.9646 20.4561 15.7072 20.4648 13.6552 20.4648C11.6029 20.4648 11.3457 20.4561 10.5397 20.4198C9.73558 20.3835 9.18622 20.2574 8.70574 20.0729C8.20135 19.8854 7.74476 19.5916 7.36728 19.2118C6.98297 18.8391 6.6856 18.3878 6.49586 17.8897C6.30912 17.415 6.18122 16.8723 6.14468 16.0778C6.10753 15.2816 6.0989 15.0273 6.0989 13C6.0989 10.9727 6.10753 10.7184 6.14448 9.92238C6.18102 9.12773 6.30872 8.58521 6.49545 8.11032C6.6852 7.61223 6.98277 7.16095 7.36728 6.78822C7.74456 6.40836 8.20135 6.11458 8.70553 5.92712C9.18622 5.74265 9.73538 5.61649 10.5397 5.58018C11.3455 5.54388 11.6029 5.53516 13.655 5.53516C15.707 5.53516 15.9644 5.54388 16.7702 5.58038C17.5746 5.61649 18.1237 5.74265 18.6044 5.92693C19.1086 6.11438 19.5654 6.40836 19.9429 6.78822C20.3272 7.16115 20.6247 7.61223 20.8143 8.11032C21.0012 8.58521 21.1289 9.12773 21.1657 9.92238C21.2024 10.7184 21.211 10.9727 21.211 13C21.211 15.0273 21.2024 15.2816 21.1655 16.0776Z" fill="#DEE1EA"/>
</g>
<defs>
<clipPath id="clip0">
<rect width="26.3178" height="26" fill="white" transform="translate(0.496094)"/>
</clipPath>
</defs>
</svg>
