<svg width="30" height="30" viewBox="0 0 30 30" fill="none" xmlns="http://www.w3.org/2000/svg">
<path d="M4.73909 5.07767L6.65176 27.1725C6.74126 28.2063 7.6066 29 8.64431 29H21.0249C22.0626 29 22.928 28.2063 23.0175 27.1725L24.9301 5.07767M4.73909 5.07767H1M4.73909 5.07767H9.78685M24.9301 5.07767H29M24.9301 5.07767H19.8824M9.78685 5.07767H14.8346H19.8824M9.78685 5.07767V3C9.78685 1.89543 10.6823 1 11.7869 1H17.8824C18.987 1 19.8824 1.89543 19.8824 3V5.07767" stroke="#DEE1EA" stroke-width="2" stroke-linecap="round"/>
<path d="M11.1816 13.25L17.9695 20.25" stroke="#DEE1EA" stroke-width="2" stroke-linecap="round"/>
<path d="M17.9688 13.25L11.1809 20.25" stroke="#DEE1EA" stroke-width="2" stroke-linecap="round"/>
</svg>
