<svg width="27" height="26" viewBox="0 0 27 26" fill="none" xmlns="http://www.w3.org/2000/svg">
<path d="M13.1589 26C20.4281 26 26.3178 20.1814 26.3178 13C26.3178 5.81858 20.4281 0 13.1589 0C5.88969 0 0 5.81858 0 13C0 20.1814 5.88969 26 13.1589 26ZM6.02128 11.7183L18.7086 6.88558C19.2975 6.67542 19.8118 7.0275 19.621 7.90717L19.6221 7.90608L17.4618 17.9605C17.3017 18.6733 16.873 18.8467 16.2731 18.5108L12.9834 16.1156L11.3967 17.6257C11.2212 17.7991 11.0732 17.9453 10.7333 17.9453L10.9668 14.6379L17.0638 9.19633C17.3291 8.96558 17.0046 8.83558 16.6548 9.06525L9.1202 13.7517L5.87215 12.7507C5.16705 12.5297 5.1517 12.0542 6.02128 11.7183Z" fill="black"/>
</svg>
