<svg width="40" height="34" viewBox="0 0 40 34" fill="none" xmlns="http://www.w3.org/2000/svg">
<path d="M20.0958 27.4661C20.0695 27.4835 20.0433 27.5007 20.0172 27.5179C19.9871 27.4979 19.9568 27.4777 19.9263 27.4573C18.1713 26.2871 15.8586 24.6345 13.5721 22.6816C11.2605 20.7071 9.13073 18.5564 7.61782 16.4139C6.06636 14.2167 5.5 12.5063 5.5 11.2967C5.5 7.89899 8.10153 5.50034 10.88 5.50034H10.9023L10.9246 5.50016C12.6288 5.48636 14.3138 6.37479 15.3367 8.01066L19.9729 15.4252L24.648 8.03517C25.6855 6.39528 27.3796 5.49844 29.0991 5.50031C31.8828 5.51837 34.4771 7.91564 34.5 11.3087C34.4963 12.5742 33.9154 14.3062 32.3778 16.4901C30.8689 18.6333 28.7448 20.7745 26.438 22.7353C24.1562 24.6748 21.8478 26.31 20.0958 27.4661Z" stroke="white" stroke-width="11"/>
</svg>
