<svg width="28" height="26" viewBox="0 0 28 26" fill="none" xmlns="http://www.w3.org/2000/svg">
<ellipse cx="14.1491" cy="13" rx="13.1589" ry="13" fill="black"/>
<path d="M21.8574 17.0274C21.8144 16.9564 21.5484 16.3866 20.2683 15.2153C18.9282 13.9888 19.1082 14.188 20.7223 12.0673C21.7054 10.7757 22.0984 9.98699 21.9754 9.6498C21.8584 9.32839 21.1353 9.41318 21.1353 9.41318L18.7312 9.42699C18.7312 9.42699 18.5531 9.40332 18.4201 9.48121C18.2911 9.55811 18.2081 9.73558 18.2081 9.73558C18.2081 9.73558 17.8271 10.7353 17.3191 11.5852C16.248 13.3785 15.8189 13.4732 15.6439 13.3618C15.2369 13.1025 15.3389 12.3187 15.3389 11.7626C15.3389 10.0245 15.6059 9.2998 14.8179 9.11248C14.5559 9.05037 14.3638 9.00896 13.6948 9.00206C12.8367 8.99318 12.1097 9.00501 11.6986 9.20318C11.4246 9.3353 11.2136 9.63009 11.3426 9.64685C11.5016 9.66755 11.8617 9.74248 12.0527 9.99882C12.2997 10.3291 12.2907 11.0725 12.2907 11.0725C12.2907 11.0725 12.4327 13.1183 11.9597 13.3726C11.6346 13.5471 11.1896 13.1912 10.2345 11.5635C9.7455 10.7304 9.37547 9.80854 9.37547 9.80854C9.37547 9.80854 9.30447 9.63699 9.17746 9.5453C9.02345 9.43389 8.80743 9.39839 8.80743 9.39839L6.52126 9.4122C6.52126 9.4122 6.17824 9.42206 6.05223 9.56896C5.94022 9.70009 6.04323 9.97023 6.04323 9.97023C6.04323 9.97023 7.83336 14.0983 9.85951 16.1795C11.7186 18.0873 13.8288 17.9621 13.8288 17.9621H14.7849C14.7849 17.9621 15.0739 17.9305 15.2209 17.7738C15.3569 17.6298 15.3519 17.3597 15.3519 17.3597C15.3519 17.3597 15.3329 16.0948 15.929 15.9084C16.516 15.725 17.2701 17.131 18.0691 17.6722C18.6732 18.0814 19.1322 17.9917 19.1322 17.9917L21.2693 17.9621C21.2693 17.9621 22.3874 17.8941 21.8574 17.0274Z" fill="white"/>
</svg>
