<svg width="34" height="34" viewBox="0 0 34 34" fill="none" xmlns="http://www.w3.org/2000/svg">
<path d="M5.27324 5.66019L7.48176 31.1725C7.57125 32.2063 8.4366 33 9.47431 33H24.1477C25.1854 33 26.0507 32.2063 26.1402 31.1725L28.3487 5.66019M5.27324 5.66019H1M5.27324 5.66019H11.0421M28.3487 5.66019H33M28.3487 5.66019H22.5799M11.0421 5.66019H16.811H22.5799M11.0421 5.66019V3C11.0421 1.89543 11.9375 1 13.0421 1H20.5799C21.6844 1 22.5799 1.89543 22.5799 3V5.66019" stroke="#445B7B" stroke-width="2" stroke-linecap="round"/>
<path d="M12.6367 15L20.3943 23" stroke="#445B7B" stroke-width="2" stroke-linecap="round"/>
<path d="M20.3945 15L12.637 23" stroke="#445B7B" stroke-width="2" stroke-linecap="round"/>
</svg>
