<svg width="27" height="26" viewBox="0 0 27 26" fill="none" xmlns="http://www.w3.org/2000/svg">
<g clip-path="url(#clip0)">
<path d="M13.1622 0H13.1556C5.90011 0 0 5.8305 0 13C0 15.8438 0.927701 18.4795 2.50512 20.6196L0.865196 25.4491L5.92314 23.8518C8.00389 25.2135 10.486 26 13.1622 26C20.4176 26 26.3178 20.1679 26.3178 13C26.3178 5.83213 20.4176 0 13.1622 0ZM20.819 18.3576C20.5015 19.2432 19.2416 19.9777 18.2366 20.1922C17.549 20.3369 16.6509 20.4523 13.6277 19.214C9.7606 17.6313 7.27028 13.7491 7.07619 13.4972C6.89032 13.2454 5.51357 11.4416 5.51357 9.57613C5.51357 7.71063 6.47252 6.80225 6.85907 6.41225C7.17652 6.09212 7.70123 5.94587 8.20456 5.94587C8.3674 5.94587 8.51379 5.954 8.64538 5.9605C9.03193 5.97675 9.22602 5.9995 9.48097 6.60238C9.79843 7.358 10.5715 9.2235 10.6636 9.41525C10.7574 9.607 10.8511 9.867 10.7196 10.1189C10.5962 10.3789 10.4876 10.4942 10.2935 10.7153C10.0994 10.9362 9.91521 11.1053 9.72112 11.3425C9.54348 11.5489 9.3428 11.7699 9.5665 12.1518C9.79021 12.5255 10.5633 13.7719 11.7015 14.7729C13.1704 16.0647 14.3613 16.4775 14.7873 16.653C15.1047 16.783 15.4831 16.7521 15.715 16.5084C16.0094 16.1947 16.3729 15.6748 16.743 15.1629C17.0062 14.7956 17.3385 14.7501 17.6872 14.8801C18.0425 15.002 19.9225 15.9201 20.3091 16.1102C20.6956 16.302 20.9506 16.393 21.0443 16.5539C21.1364 16.7148 21.1364 17.4704 20.819 18.3576Z" fill="#DEE1EA"/>
</g>
<defs>
<clipPath id="clip0">
<rect width="26.3178" height="26" fill="white"/>
</clipPath>
</defs>
</svg>
