<svg width="17" height="20" viewBox="0 0 17 20" fill="none" xmlns="http://www.w3.org/2000/svg">
<path d="M1.66708 0H11.8029L16.4708 4.58216V17.5431H14.1368V19.3105H0V1.57103H1.66708V0Z" fill="#445B7B"/>
<rect x="3.80273" y="3.01074" width="2.4006" height="2.35654" rx="1.17827" fill="black"/>
<rect x="3.99911" y="6.3497" width="0.807541" height="0.392757" rx="0.196378" stroke="black" stroke-width="0.392757"/>
<rect x="3.99911" y="8.18173" width="0.807541" height="0.392757" rx="0.196378" stroke="black" stroke-width="0.392757"/>
<rect x="3.99911" y="10.0147" width="0.807541" height="0.392757" rx="0.196378" stroke="black" stroke-width="0.392757"/>
<rect x="3.99911" y="11.8487" width="0.807541" height="0.392757" rx="0.196378" stroke="black" stroke-width="0.392757"/>
<rect x="3.99911" y="13.6808" width="0.807541" height="0.392757" rx="0.196378" stroke="black" stroke-width="0.392757"/>
<rect x="5.86435" y="6.3497" width="8.40943" height="0.392757" rx="0.196378" stroke="black" stroke-width="0.392757"/>
<rect x="5.86435" y="8.18173" width="8.40943" height="0.392757" rx="0.196378" stroke="black" stroke-width="0.392757"/>
<rect x="5.86435" y="10.0147" width="8.40943" height="0.392757" rx="0.196378" stroke="black" stroke-width="0.392757"/>
<rect x="5.86435" y="11.8487" width="8.40943" height="0.392757" rx="0.196378" stroke="black" stroke-width="0.392757"/>
<rect x="5.86435" y="13.6808" width="8.40943" height="0.392757" rx="0.196378" stroke="black" stroke-width="0.392757"/>
</svg>
