<svg width="28" height="26" viewBox="0 0 28 26" fill="none" xmlns="http://www.w3.org/2000/svg">
<ellipse cx="14.1491" cy="13" rx="13.1589" ry="13" fill="#DEE1EA"/>
<path d="M21.8574 17.0786C21.8144 16.9997 21.5484 16.3665 20.2683 15.0651C18.9282 13.7023 19.1082 13.9236 20.7223 11.5673C21.7054 10.1322 22.0984 9.25583 21.9754 8.88118C21.8584 8.52406 21.1353 8.61827 21.1353 8.61827L18.7312 8.63361C18.7312 8.63361 18.5531 8.60732 18.4201 8.69386C18.2911 8.77931 18.2081 8.97649 18.2081 8.97649C18.2081 8.97649 17.8271 10.0873 17.3191 11.0316C16.248 13.0242 15.8189 13.1294 15.6439 13.0056C15.2369 12.7175 15.3389 11.8466 15.3389 11.2288C15.3389 9.29746 15.6059 8.49229 14.8179 8.28416C14.5559 8.21514 14.3638 8.16913 13.6948 8.16146C12.8367 8.1516 12.1097 8.16475 11.6986 8.38494C11.4246 8.53173 11.2136 8.85928 11.3426 8.8779C11.5016 8.9009 11.8617 8.98416 12.0527 9.26898C12.2997 9.63596 12.2907 10.4619 12.2907 10.4619C12.2907 10.4619 12.4327 12.735 11.9597 13.0177C11.6346 13.2116 11.1896 12.8161 10.2345 11.0075C9.7455 10.0818 9.37547 9.05755 9.37547 9.05755C9.37547 9.05755 9.30447 8.86694 9.17746 8.76506C9.02345 8.64128 8.80743 8.60184 8.80743 8.60184L6.52126 8.61718C6.52126 8.61718 6.17824 8.62813 6.05223 8.79136C5.94022 8.93705 6.04323 9.23721 6.04323 9.23721C6.04323 9.23721 7.83336 13.8239 9.85951 16.1365C11.7186 18.2562 13.8288 18.1171 13.8288 18.1171H14.7849C14.7849 18.1171 15.0739 18.082 15.2209 17.9078C15.3569 17.7479 15.3519 17.4477 15.3519 17.4477C15.3519 17.4477 15.3329 16.0422 15.929 15.8352C16.516 15.6314 17.2701 17.1936 18.0691 17.795C18.6732 18.2496 19.1322 18.1499 19.1322 18.1499L21.2693 18.1171C21.2693 18.1171 22.3874 18.0415 21.8574 17.0786Z" fill="white"/>
</svg>
