<svg width="40" height="34" viewBox="0 0 40 34" fill="none" xmlns="http://www.w3.org/2000/svg">
<path d="M20.0824 32.2092C20.0561 32.2252 20.0303 32.2408 20.0051 32.256C19.979 32.24 19.9522 32.2236 19.9249 32.2068C19.392 31.88 18.6269 31.3986 17.7072 30.7854C15.8649 29.5569 13.416 27.8087 10.9742 25.7231C8.5256 23.6316 6.12657 21.2366 4.35032 18.7211C2.56356 16.1907 1.5 13.6704 1.5 11.2967C1.5 5.83277 5.75213 1.50034 10.88 1.50034V1.50039L10.8922 1.50029C14.0321 1.47487 16.9925 3.11414 18.7282 5.88997L19.9926 7.91213L21.2677 5.89666C23.0173 3.13102 25.9738 1.49311 29.1143 1.50033C34.2345 1.52728 38.4727 5.84632 38.5 11.3004C38.4989 13.7187 37.4319 16.2598 35.6485 18.7929C33.8734 21.3142 31.4759 23.7029 29.0286 25.783C26.5881 27.8574 24.1403 29.5896 22.2989 30.8047C21.3796 31.4113 20.6149 31.8868 20.0824 32.2092Z" stroke="white" stroke-width="3"/>
</svg>
