<svg width="27" height="26" viewBox="0 0 27 26" fill="none" xmlns="http://www.w3.org/2000/svg">
<g clip-path="url(#clip0)">
<path d="M13.8438 0H13.8372C6.58175 0 0.681641 5.8305 0.681641 13C0.681641 15.8438 1.60934 18.4795 3.18676 20.6196L1.54684 25.4491L6.60478 23.8518C8.68553 25.2135 11.1676 26 13.8438 26C21.0993 26 26.9994 20.1679 26.9994 13C26.9994 5.83213 21.0993 0 13.8438 0ZM21.5006 18.3576C21.1832 19.2432 19.9232 19.9777 18.9182 20.1922C18.2306 20.3369 17.3326 20.4523 14.3093 19.214C10.4422 17.6313 7.95192 13.7491 7.75783 13.4972C7.57196 13.2454 6.19521 11.4416 6.19521 9.57613C6.19521 7.71063 7.15416 6.80225 7.54071 6.41225C7.85816 6.09212 8.38287 5.94587 8.8862 5.94587C9.04904 5.94587 9.19543 5.954 9.32702 5.9605C9.71357 5.97675 9.90766 5.9995 10.1626 6.60238C10.4801 7.358 11.2532 9.2235 11.3453 9.41525C11.439 9.607 11.5328 9.867 11.4012 10.1189C11.2778 10.3789 11.1693 10.4942 10.9752 10.7153C10.7811 10.9362 10.5969 11.1053 10.4028 11.3425C10.2251 11.5489 10.0244 11.7699 10.2481 12.1518C10.4718 12.5255 11.2449 13.7719 12.3832 14.7729C13.852 16.0647 15.0429 16.4775 15.4689 16.653C15.7864 16.783 16.1647 16.7521 16.3966 16.5084C16.6911 16.1947 17.0546 15.6748 17.4247 15.1629C17.6878 14.7956 18.0201 14.7501 18.3688 14.8801C18.7241 15.002 20.6042 15.9201 20.9907 16.1102C21.3773 16.302 21.6322 16.393 21.726 16.5539C21.8181 16.7148 21.8181 17.4704 21.5006 18.3576Z" fill="black"/>
</g>
<defs>
<clipPath id="clip0">
<rect width="26.3178" height="26" fill="white" transform="translate(0.681641)"/>
</clipPath>
</defs>
</svg>
