<svg width="430" height="430" viewBox="0 0 430 430" fill="none" xmlns="http://www.w3.org/2000/svg">
<circle cx="215" cy="215" r="215" fill="#7585D9"/>
<path d="M214.998 166.826L256.718 190.913V239.087L214.998 263.175L173.278 239.087V190.913L214.998 166.826Z" fill="white"/>
<path d="M311.348 166.826L353.068 190.913V239.087L311.348 263.175L269.628 239.087V190.913L311.348 166.826Z" fill="white"/>
<path d="M263.174 84L304.894 108.087V156.261L263.174 180.348L221.454 156.261V108.087L263.174 84Z" fill="white"/>
<path d="M263.174 249.651L304.894 273.738V321.913L263.174 346L221.454 321.913V273.738L263.174 249.651Z" fill="white"/>
<path d="M166.825 84L208.545 108.087V156.261L166.825 180.348L125.105 156.261V108.087L166.825 84Z" fill="white"/>
<path d="M166.825 249.651L208.545 273.738V321.913L166.825 346L125.105 321.913V273.738L166.825 249.651Z" fill="white"/>
<path d="M118.651 166.826L160.371 190.913V239.087L118.651 263.175L76.9307 239.087V190.913L118.651 166.826Z" fill="white"/>
</svg>
