<svg width="46" height="46" viewBox="0 0 46 46" fill="none" xmlns="http://www.w3.org/2000/svg">
<circle cx="23" cy="23" r="22.5" fill="white" stroke="#DEE1EA"/>
<path d="M34.0155 9.91409C34.1288 9.71775 34.3799 9.65048 34.5762 9.76384L35.996 10.5836C36.1924 10.6969 36.2596 10.948 36.1463 11.1443L34.6704 13.7006C34.5571 13.8969 34.306 13.9642 34.1097 13.8508L32.6899 13.0311C32.4935 12.9177 32.4263 12.6667 32.5396 12.4703L34.0155 9.91409Z" fill="#EAEAEA"/>
<path fill-rule="evenodd" clip-rule="evenodd" d="M33.2015 13.3258L34.1258 13.8595C34.3222 13.9728 34.5732 13.9056 34.6866 13.7092L36.1624 11.153C36.2758 10.9566 36.2085 10.7056 36.0122 10.5922L35.0879 10.0586C35.2842 10.1719 35.3515 10.423 35.2381 10.6193L33.7623 13.1756C33.6489 13.3719 33.3979 13.4392 33.2015 13.3258Z" fill="#CFCFCF"/>
<path d="M28.8181 14.0229C28.9995 13.7088 29.4011 13.6011 29.7153 13.7825L34.9766 16.8201C35.2907 17.0015 35.3983 17.4032 35.217 17.7173L31.892 23.4763C31.7107 23.7904 31.309 23.8981 30.9948 23.7167L25.7335 20.6791C25.4194 20.4977 25.3118 20.096 25.4931 19.7819L28.8181 14.0229Z" fill="#D8D8D8"/>
<path fill-rule="evenodd" clip-rule="evenodd" d="M28.7897 22.4444L30.9938 23.7169C31.3079 23.8983 31.7096 23.7907 31.891 23.4765L35.2159 17.7175C35.3973 17.4034 35.2897 17.0017 34.9755 16.8204L32.7715 15.5479C33.0856 15.7292 33.1932 16.1309 33.0119 16.445L29.6869 22.204C29.5056 22.5182 29.1039 22.6258 28.7897 22.4444Z" fill="#979797"/>
<path d="M15.5138 16.3047C15.8535 15.7163 16.6059 15.5147 17.1943 15.8544L18.2597 16.4695C18.8481 16.8092 19.0497 17.5616 18.71 18.15C18.3703 18.7384 17.6179 18.94 17.0295 18.6003L15.9641 17.9852C15.3757 17.6455 15.1741 16.8931 15.5138 16.3047Z" fill="#46539C"/>
<path d="M13.0529 20.5664C13.3926 19.978 14.145 19.7764 14.7334 20.1161L15.7988 20.7312C16.3872 21.0709 16.5888 21.8233 16.2491 22.4117C15.9094 23.0001 15.157 23.2017 14.5686 22.862L13.5032 22.2469C12.9147 21.9072 12.7131 21.1548 13.0529 20.5664Z" fill="#46539C"/>
<path d="M31.6715 11.0229C31.2003 10.7508 30.5978 10.9123 30.3258 11.3835L27.7428 15.8573L34.1352 19.548L36.7182 15.0741C36.9902 14.6029 36.8288 14.0004 36.3576 13.7284L31.6715 11.0229Z" fill="#EAEAEA"/>
<path fill-rule="evenodd" clip-rule="evenodd" d="M31.9475 18.2874L34.1518 19.56L36.7348 15.0862C37.0068 14.615 36.8454 14.0125 36.3742 13.7404L34.1699 12.4678C34.6411 12.7398 34.8026 13.3423 34.5305 13.8135L31.9475 18.2874Z" fill="#CFCFCF"/>
<path d="M18.519 15.2003C18.8591 14.6113 19.6122 14.4095 20.2012 14.7495L32.984 22.1296C33.573 22.4697 33.7748 23.2228 33.4347 23.8118L23.5942 40.8562C23.2541 41.4452 22.5009 41.647 21.9119 41.3069L9.12923 33.9268C8.54023 33.5868 8.33842 32.8336 8.67848 32.2446L18.519 15.2003Z" fill="#7585D9"/>
<path fill-rule="evenodd" clip-rule="evenodd" d="M19.6448 40.0132L21.9205 41.3271C22.5095 41.6672 23.2626 41.4653 23.6027 40.8763L33.4432 23.832C33.7833 23.243 33.5815 22.4899 32.9925 22.1498L30.7168 20.8359C31.3058 21.176 31.5076 21.9292 31.1675 22.5182L21.327 39.5625C20.9869 40.1515 20.2338 40.3533 19.6448 40.0132Z" fill="#46539C"/>
</svg>
