<svg width="46" height="46" viewBox="0 0 46 46" fill="none" xmlns="http://www.w3.org/2000/svg">
<circle cx="23" cy="23" r="22.5" fill="white" stroke="#DEE1EA"/>
<path d="M15.3645 11.7499C15.5444 11.2968 15.9781 11 16.4602 11H29.9387C30.1798 11 30.3966 11.1484 30.4866 11.3749L37.8961 30.028C38.2709 30.9716 37.5852 32 36.5812 32H9.41876C8.41477 32 7.72907 30.9716 8.10388 30.028L15.3645 11.7499Z" fill="#7585D9"/>
<path d="M18.4863 9.51154C18.4863 8.85095 19.0218 8.31543 19.6824 8.31543H26.3208C26.9814 8.31543 27.517 8.85095 27.517 9.51154V11.1861H18.4863V9.51154Z" fill="#8B9BEE"/>
<path d="M33.0781 34.9904C33.0781 35.651 32.5426 36.1865 31.882 36.1865H14.1198C13.4592 36.1865 12.9237 35.651 12.9237 34.9904V32.0001H33.0781V34.9904Z" fill="#46539C"/>
<path d="M28.7148 34.0029C28.7148 34.6139 28.2194 35.1093 27.6084 35.1093C26.9973 35.1093 26.502 34.6139 26.502 34.0029C26.502 33.3918 26.9973 32.8965 27.6084 32.8965C28.2194 32.8965 28.7148 33.3918 28.7148 34.0029Z" fill="#4CC8DF"/>
<path d="M19.5058 34.0029C19.5058 34.6139 19.0104 35.1093 18.3994 35.1093C17.7883 35.1093 17.293 34.6139 17.293 34.0029C17.293 33.3918 17.7883 32.8965 18.3994 32.8965C19.0104 32.8965 19.5058 33.3918 19.5058 34.0029Z" fill="#B4C0FF"/>
<path d="M30.358 21.9106C30.358 25.9565 27.0634 29.2363 22.9993 29.2363C18.9352 29.2363 15.6406 25.9565 15.6406 21.9106C15.6406 17.8648 18.9352 14.585 22.9993 14.585C27.0634 14.585 30.358 17.8648 30.358 21.9106Z" fill="#B4C0FF"/>
<path d="M28.5754 21.9449C28.5754 25.0249 26.0786 27.5217 22.9986 27.5217C19.9187 27.5217 17.4219 25.0249 17.4219 21.9449C17.4219 18.865 19.9187 16.3682 22.9986 16.3682C26.0786 16.3682 28.5754 18.865 28.5754 21.9449Z" fill="#7585D9"/>
<path d="M21.8457 18.6463C21.8457 18.0073 22.3628 17.4893 23.0007 17.4893C23.6385 17.4893 24.1556 18.0073 24.1556 18.6463V25.1098C24.1556 25.7488 23.6385 26.2669 23.0007 26.2669C22.3628 26.2669 21.8457 25.7488 21.8457 25.1098V18.6463Z" fill="#46539C"/>
</svg>
