<svg width="107" height="93" viewBox="0 0 107 93" fill="none" xmlns="http://www.w3.org/2000/svg">
<circle cx="53.5" cy="46.5" r="45.5" fill="white"/>
<path d="M98.2929 47.2071C98.6834 47.5976 99.3166 47.5976 99.7071 47.2071L106.071 40.8431C106.462 40.4526 106.462 39.8195 106.071 39.4289C105.681 39.0384 105.047 39.0384 104.657 39.4289L99 45.0858L93.3431 39.4289C92.9526 39.0384 92.3195 39.0384 91.9289 39.4289C91.5384 39.8195 91.5384 40.4526 91.9289 40.8431L98.2929 47.2071ZM53.5 93C54.0523 93 54.5 92.5523 54.5 92C54.5 91.4477 54.0523 91 53.5 91V93ZM8.70711 45.7929C8.31658 45.4024 7.68342 45.4024 7.29289 45.7929L0.928932 52.1569C0.538408 52.5474 0.538408 53.1805 0.928932 53.5711C1.31946 53.9616 1.95262 53.9616 2.34315 53.5711L8 47.9142L13.6569 53.5711C14.0474 53.9616 14.6805 53.9616 15.0711 53.5711C15.4616 53.1805 15.4616 52.5474 15.0711 52.1569L8.70711 45.7929ZM53.5 0C52.9477 0 52.5 0.447715 52.5 1C52.5 1.55228 52.9477 2 53.5 2V0ZM53.5 91C28.9233 91 9 71.0767 9 46.5H7C7 72.1812 27.8188 93 53.5 93V91ZM53.5 2C78.0767 2 98 21.9233 98 46.5H100C100 20.8188 79.1812 0 53.5 0V2Z" fill="#4D5DAE"/>
<path d="M25.9336 38.3027C25.9336 34.989 28.6199 32.3027 31.9336 32.3027H80.3738C81.3515 32.3027 82.2679 32.7792 82.8295 33.5796L89.9118 43.6728C90.6202 44.6824 91.0003 45.8858 91.0003 47.1191V58.7634C91.0003 60.4203 89.6571 61.7634 88.0003 61.7634H28.9336C27.2767 61.7634 25.9336 60.4203 25.9336 58.7634V38.3027Z" fill="#1DADCA"/>
<path d="M26 26C26 24.3431 27.3431 23 29 23H62C63.6569 23 65 24.3431 65 26V51H26V26Z" fill="#4D5DAE"/>
<rect x="16" y="27" width="31.4667" height="5.16854" rx="2.58427" fill="#4D5DAE"/>
<rect x="17.9336" y="36.3027" width="29.3333" height="5.16854" rx="2.58427" fill="#4D5DAE"/>
<rect x="21.668" y="45.6055" width="25.6" height="5.16854" rx="2.58427" fill="#4D5DAE"/>
<ellipse cx="43" cy="61.247" rx="8" ry="7.75282" fill="#0099B9"/>
<ellipse cx="77.668" cy="61.247" rx="8" ry="7.75282" fill="#0099B9"/>
<ellipse cx="43.0008" cy="61.2466" rx="3.2" ry="3.10113" fill="white"/>
<ellipse cx="77.6668" cy="61.2466" rx="3.2" ry="3.10113" fill="white"/>
<path d="M69.668 37.4385C69.668 36.8862 70.1157 36.4385 70.668 36.4385H76.9342C77.8974 36.4385 78.8021 36.901 79.3661 37.6819L84.7894 45.19C85.2671 45.8513 84.7945 46.7756 83.9787 46.7756H70.668C70.1157 46.7756 69.668 46.3279 69.668 45.7756V37.4385Z" fill="white"/>
</svg>
