<svg width="48" height="48" viewBox="0 0 48 48" fill="none" xmlns="http://www.w3.org/2000/svg">
<path d="M19.2187 16.8574L16.7793 31.1729H20.6808L23.1222 16.8574H19.2187Z" fill="#C0BAFF"/>
<path d="M13.5083 16.8731L9.6871 26.6359L9.27969 25.1618C8.52608 23.3856 6.38669 20.8348 3.875 19.2273L7.36908 31.1656L11.4974 31.1585L17.6416 16.8701L13.5083 16.8731Z" fill="#C0BAFF"/>
<path d="M7.79897 17.8984C7.57219 17.0264 6.91491 16.7665 6.09909 16.7354H0.0501735L0 17.0203C4.70728 18.1623 7.82205 20.9138 9.11452 24.2222L7.79897 17.8984Z" fill="#C0BAFF"/>
<path d="M31.0304 19.6017C32.3068 19.5816 33.232 19.8606 33.9505 20.1496L34.3027 20.3151L34.8305 17.2124C34.0579 16.9224 32.8467 16.6113 31.3354 16.6113C27.4801 16.6113 24.7627 18.553 24.7416 21.3357C24.7166 23.3918 26.6773 24.5397 28.1585 25.2251C29.6787 25.9275 30.1885 26.3741 30.1815 27.0013C30.1694 27.9596 28.9693 28.3991 27.8484 28.3991C26.286 28.3991 25.4561 28.1833 24.1747 27.6495L23.6719 27.4207L23.123 30.6248C24.0362 31.0252 25.721 31.3694 27.4701 31.3874C31.5713 31.3874 34.2365 29.4688 34.2646 26.4955C34.2816 24.8689 33.241 23.6276 30.9862 22.6091C29.6215 21.9448 28.7866 21.5032 28.7947 20.8329C28.7947 20.2379 29.5031 19.6017 31.0304 19.6017Z" fill="#C0BAFF"/>
<path d="M44.8437 16.873H41.8293C40.8931 16.873 40.1966 17.1279 39.7852 18.0612L33.9922 31.1805H38.0894C38.0894 31.1805 38.7577 29.4164 38.9092 29.0301C39.3577 29.0301 43.3385 29.0361 43.9055 29.0361C44.0219 29.5358 44.3811 31.1805 44.3811 31.1805H48.0006L44.8437 16.873ZM40.0321 26.1C40.3532 25.2781 41.5865 22.0991 41.5865 22.0991C41.5654 22.1383 41.9046 21.2713 42.1062 20.7324L42.3692 21.9667C42.3692 21.9667 43.1167 25.3845 43.2733 26.1H40.0321Z" fill="#C0BAFF"/>
</svg>
